<?xml version="1.0" encoding="UTF-8"?>
<svg width="161px" height="195px" viewBox="0 0 161 195" version="1.1" xmlns="http://www.w3.org/2000/svg" xmlns:xlink="http://www.w3.org/1999/xlink">
    <!-- Generator: Sketch 46 (44423) - http://www.bohemiancoding.com/sketch -->
    <title>Artboard Copy</title>
    <desc>Created with Sketch.</desc>
    <defs></defs>
    <g id="Page-1" stroke="none" stroke-width="1" fill="none" fill-rule="evenodd">
        <g id="Artboard-Copy">
            <path d="M55.9222983,154.559448 C24.6059395,144.279268 2,114.888329 2,80.2352941 C2,37.0271343 37.1456471,2 80.5,2 C123.854353,2 159,37.0271343 159,80.2352941 C159,114.506326 136.889714,143.630638 106.11017,154.212524 L80.9005102,192 L55.9222983,154.559448 Z" id="Combined-Shape" stroke="#000000" stroke-width="2" fill="#D8D8D8"></path>
            <g id="Group" transform="translate(22.000000, 21.000000)">
                <circle id="Oval" stroke="#000000" stroke-width="2" fill="#E1BD1D" cx="59.5" cy="59.5" r="59.5"></circle>
                <g id="Group-2" transform="translate(12.020202, 54.090909)">
                    <path d="M21.019943,8.59645688e-13 C21.9990123,6.22716838 25.3755723,10.8181818 29.3905002,10.8181818 C31.9727948,10.8181818 38.6518224,3.67381006 37.0046347,0.632569841 C36.8822889,0.406680122 36.7879704,0.196416757 36.7178253,7.21311899e-13 L21.019943,7.21200877e-13 Z" id="Combined-Shape" fill="#000000"></path>
                    <path d="M0,1.96694215 C5.58571912,1.31129477 11.4041765,0.983471074 17.4553723,0.983471074 C23.506568,0.983471074 29.790502,1.31129477 36.3071743,1.96694215 L0,1.96694215 Z" id="Path-2" stroke="#000000" stroke-width="3.84"></path>
                </g>
                <g id="Group-2-Copy" transform="translate(68.515152, 55.292929)">
                    <path d="M21.019943,8.60533866e-13 C21.9990123,6.22716838 25.3755723,10.8181818 29.3905002,10.8181818 C31.9727948,10.8181818 38.6518224,3.67381006 37.0046347,0.632569841 C36.8822889,0.406680122 36.7879704,0.196416757 36.7178253,7.19369009e-13 L21.019943,7.21200877e-13 Z" id="Combined-Shape" fill="#000000"></path>
                    <path d="M0,1.96694215 C5.58571912,1.31129477 11.4041765,0.983471074 17.4553723,0.983471074 C23.506568,0.983471074 29.790502,1.31129477 36.3071743,1.96694215 L0,1.96694215 Z" id="Path-2" stroke="#000000" stroke-width="3.84"></path>
                </g>
                <path d="M60.1010101,95.7948981 C74.7058735,95.7948981 86.5454545,100.143687 86.5454545,94.4502654 C86.5454545,88.756844 74.7058735,84.1414141 60.1010101,84.1414141 C45.4961467,84.1414141 33.6565657,88.756844 33.6565657,94.4502654 C33.6565657,100.143687 45.4961467,95.7948981 60.1010101,95.7948981 Z" id="Oval-4" fill="#8F2626"></path>
            </g>
        </g>
    </g>
</svg>